<svg width="24" height="24" viewBox="0 0 24 24" fill="none" xmlns="http://www.w3.org/2000/svg">
<path fill-rule="evenodd" clip-rule="evenodd" d="M3.79109 7.71798C3.29272 8.09612 3 8.68567 3 9.31126V19.0002C3 20.1048 3.89543 21.0002 5 21.0002H7.69944C8.73372 20.8959 9 19.9811 9 19.51V15.1717C9 14.6195 9.44772 14.1717 10 14.1717H14C14.5523 14.1717 15 14.6195 15 15.1717V19.51C15 19.981 15.2662 20.8957 16.3002 21.0002H19C20.1046 21.0002 21 20.1048 21 19.0002V9.31126C21 8.68567 20.7073 8.09612 20.2089 7.71798L13.2089 2.40672C12.4942 1.86443 11.5058 1.86443 10.7911 2.40672L3.79109 7.71798Z" fill="#7B7B7B"/>
</svg>
