<svg width="148" height="61" viewBox="0 0 148 61" fill="none" xmlns="http://www.w3.org/2000/svg">
<path fill-rule="evenodd" clip-rule="evenodd" d="M11 48.8698V50.7337H97.236L98.6035 48.8698H11Z" fill="#FF9F00"/>
<path fill-rule="evenodd" clip-rule="evenodd" d="M109.869 46.8876C109.869 46.8876 115.846 37.8549 116.386 36.965C117.045 35.8717 117.074 34.134 116.482 33.2018C116.18 32.7138 107.266 18.4555 107.266 18.4555C106.467 16.9149 106.666 15.8622 107.201 15.1115C108.08 13.7992 109.627 11.4734 109.627 11.4734C109.627 11.4734 120.45 28.6471 120.899 29.4104C122.061 31.3702 121.739 33.2909 120.782 34.9332C119.981 36.3206 112.969 46.8876 112.969 46.8876H109.869Z" fill="#FF9F00"/>
<path fill-rule="evenodd" clip-rule="evenodd" d="M108.018 47.8632C108.018 47.8632 114.93 37.7274 115.443 36.8871C116.047 35.8627 115.981 34.4174 115.443 33.5446C115.156 33.0835 105.554 17.9525 105.554 17.9525C105.554 17.9525 103.853 20.5259 103.314 21.3213C102.777 22.1136 102.461 23.0978 103.382 24.6839C103.382 24.6839 110.255 35.5517 110.544 36.0113C111.107 36.898 111.081 38.5259 110.455 39.5518C109.942 40.3813 102.852 50.7337 102.852 50.7337H123.31C125.39 50.7337 126.532 49.926 127.537 48.4775C128.407 47.2473 131.774 42.3481 132.287 41.5806C132.799 40.8115 133.825 40.2993 134.281 40.2993H135.882L132.76 35.5455H127.784C126.832 35.5455 125.682 36.3919 125.081 37.2864C124.608 37.9936 121.204 43.1001 120.591 43.9218C120.243 44.3845 119.945 44.4882 119.668 44.4882C119.517 44.4898 119.076 44.4882 119.02 44.4882C119.223 44.0797 124.941 35.7482 126.066 33.9145C127.424 31.6567 127.732 28.6748 126.115 25.8151C125.525 24.7752 113.641 6 113.641 6C113.641 6 112.059 8.28249 111.4 9.25893C110.866 10.0559 110.702 11.0989 111.472 12.6246C111.472 12.6246 121.445 28.5108 121.923 29.2412C123.082 31.0501 122.935 33.4704 121.923 35.1215C121.093 36.4802 114.204 46.8976 114.204 46.8976H119.663C121.64 46.8976 122.125 46.1626 122.671 45.5529C123.216 44.9432 126.186 40.4339 126.523 39.9573C126.865 39.4884 127.732 38.1576 128.87 38.1576H132.459V38.2613C131.694 38.416 130.941 38.8772 130.394 39.6277C129.849 40.3673 126.245 45.7122 125.809 46.3359C125.264 47.1204 124.639 47.8632 123.072 47.8632H108.018Z" fill="#FF9F00"/>
<path fill-rule="evenodd" clip-rule="evenodd" d="M62.2574 35.3565H64.1213V44.2101H62.2574V35.3565Z" fill="#002569"/>
<path fill-rule="evenodd" clip-rule="evenodd" d="M60.8595 44.2101V42.5909H56.3015V35.3565H54.3358V44.2101H56.3015H60.8595Z" fill="#002569"/>
<path fill-rule="evenodd" clip-rule="evenodd" d="M32.6687 36.8839L34.0776 40.0829L31.2677 40.0891L32.6687 36.8839ZM30.6022 41.6397L34.7445 41.6443L35.8962 44.2101H38.0266L33.6739 35.3565H31.6604L27.3092 44.2101H29.4552L30.6022 41.6397Z" fill="#002569"/>
<path fill-rule="evenodd" clip-rule="evenodd" d="M46.4863 36.9757H49.5758C50.2986 36.9757 50.7559 37.6619 50.7559 38.2813C50.7559 38.8976 50.2986 39.5636 49.5758 39.5636H47.1589L51.0734 44.2101H53.4038L50.6271 40.908H50.6318C51.8261 40.5261 52.5929 39.4456 52.5929 38.2239C52.5929 36.6978 51.4002 35.3565 49.6606 35.3565H44.5503V44.2101H46.4863V36.9757Z" fill="#002569"/>
<path fill-rule="evenodd" clip-rule="evenodd" d="M39.4246 35.3565H41.2885V44.2101H39.4246V35.3565Z" fill="#002569"/>
<path fill-rule="evenodd" clip-rule="evenodd" d="M88.8653 40.6183H91.2526C91.7992 40.6183 92.1701 40.9474 92.1701 41.5822C92.1701 42.2171 91.7992 42.5477 91.2526 42.5477H86.116V44.2101H91.0724C92.9951 44.2101 93.9438 42.8861 93.9438 41.5434C93.9438 40.1993 92.9951 38.8908 91.0724 38.8908C90.2459 38.8908 88.6717 38.8939 88.6717 38.8939C88.137 38.8939 87.7796 38.5741 87.7796 37.9579C87.7796 37.3402 88.137 37.0189 88.6717 37.0189H93.8172V35.3565H88.8653C86.9605 35.3565 86.0222 36.5268 86.0222 37.9936C86.0222 39.4589 86.9605 40.6183 88.8653 40.6183" fill="#002569"/>
<path fill-rule="evenodd" clip-rule="evenodd" d="M84.1583 44.2101V42.5909H79.081V40.3228H83.5031V38.7144H79.081V36.9741L84.1583 36.9757V35.3565H77.1687V44.2101H79.081H84.1583Z" fill="#002569"/>
<path fill-rule="evenodd" clip-rule="evenodd" d="M68.4996 36.9741H71.8956C72.7274 36.9741 73.2596 37.6929 73.2596 38.362V44.2101H75.3047V38.1152C75.3047 36.6062 74.1732 35.3565 72.3573 35.3565H69.6703L68.4996 36.8313V36.8267V35.3565H66.4512V44.2101H68.4996V36.9741Z" fill="#002569"/>
<path fill-rule="evenodd" clip-rule="evenodd" d="M13.8431 29.4349H16.2304C16.7785 29.4349 17.1478 29.764 17.1478 30.3988C17.1478 31.0336 16.7785 31.3643 16.2304 31.3643H11.0938V33.0266H16.0502C17.9744 33.0266 18.9216 31.7042 18.9216 30.36C18.9216 29.0174 17.9744 27.7074 16.0502 27.7074C15.2237 27.7074 13.6495 27.7105 13.6495 27.7105C13.1163 27.7105 12.7574 27.3907 12.7574 26.7745C12.7574 26.1567 13.1163 25.8354 13.6495 25.8354H18.795V24.1731H13.8431C11.9397 24.1731 11 25.3434 11 26.8102C11 28.2754 11.9397 29.4349 13.8431 29.4349" fill="#002569"/>
<path fill-rule="evenodd" clip-rule="evenodd" d="M40.1662 33.0266H44.0843V27.25H42.1591V31.3158H39.903C38.2717 31.3158 37.1822 30.3688 37.1822 28.5541C37.1822 26.7284 38.2717 25.7907 39.903 25.7907H44.0843V24.1731H40.1662C36.8621 24.1731 35.2308 26.5638 35.2308 28.6099C35.2308 30.6529 36.8621 33.0266 40.1662 33.0266" fill="#002569"/>
<path fill-rule="evenodd" clip-rule="evenodd" d="M21.2515 24.1731H23.1154V33.0266H21.2515V24.1731Z" fill="#002569"/>
<path fill-rule="evenodd" clip-rule="evenodd" d="M27.4937 25.7907H30.8898C31.7216 25.7907 32.2521 26.5095 32.2521 27.1786V33.0266H34.2989V26.9318C34.2989 25.4228 33.1658 24.1731 31.3499 24.1731H28.6645L27.4937 25.6479V25.6432V24.1731H25.4453V33.0266H27.4937V25.7907Z" fill="#002569"/>
<path fill-rule="evenodd" clip-rule="evenodd" d="M79.1047 25.7923H82.1942C82.917 25.7923 83.3743 26.4784 83.3743 27.0979C83.3743 27.7142 82.917 28.3802 82.1942 28.3802H79.7773L83.6918 33.0266H86.0222L83.247 29.7246H83.2502C84.4445 29.3427 85.2114 28.2637 85.2114 27.0404C85.2114 25.5144 84.0186 24.1731 82.279 24.1731H77.1687V33.0266H79.1047V25.7923Z" fill="#002569"/>
<path fill-rule="evenodd" clip-rule="evenodd" d="M93.4778 33.0266V31.4059L88.399 31.409V29.1409H92.8227V27.531H88.399V25.7907L93.4778 25.7923V24.1731H86.4882V33.0266H88.399H93.4778Z" fill="#002569"/>
<path fill-rule="evenodd" clip-rule="evenodd" d="M50.375 25.7004L51.7856 28.8994L48.9738 28.9056L50.375 25.7004ZM48.3082 30.4562L52.4528 30.4609L53.6031 33.0266H55.7338L51.3819 24.1731H49.3681L45.0163 33.0266H47.161L48.3082 30.4562Z" fill="#002569"/>
<path fill-rule="evenodd" clip-rule="evenodd" d="M59.0914 25.791H62.112C62.8287 25.791 63.2851 26.5348 63.2851 27.204C63.2851 27.8716 62.8287 28.5937 62.112 28.5937H59.0914V25.791ZM59.0914 28.7303V28.7256L60.2037 30.1991H62.1962C63.8709 30.1991 65.0533 28.8064 65.0533 27.204C65.0533 25.5922 63.8709 24.1731 62.1962 24.1731H57.1317V33.0266H59.0914V28.7303Z" fill="#002569"/>
<path fill-rule="evenodd" clip-rule="evenodd" d="M70.6434 25.9029C72.2568 25.9029 73.5708 27.2165 73.5708 28.8366C73.5708 30.4462 72.2568 31.7583 70.6434 31.7583C69.0224 31.7583 67.707 30.4462 67.707 28.8366C67.707 27.2165 69.0224 25.9029 70.6434 25.9029M70.6435 33.4926C73.2142 33.4926 75.3048 31.4036 75.3048 28.8366C75.3048 26.2591 73.2142 24.1731 70.6435 24.1731C68.0653 24.1731 65.9852 26.2591 65.9852 28.8366C65.9852 31.4036 68.0653 33.4926 70.6435 33.4926" fill="#002569"/>
</svg>
